<mxfile host="app.diagrams.net" modified="2021-04-27T09:39:57.491Z" agent="5.0 (Macintosh; Intel Mac OS X 10_15_7) AppleWebKit/537.36 (KHTML, like Gecko) Chrome/90.0.4430.85 Safari/537.36" etag="mvQcZzYlh__0mU1IhvIF" version="14.4.8" type="github">
  <diagram id="YiBbEwYWzPLb8gHCu-M_" name="Page-1">
    <mxGraphModel dx="1426" dy="737" grid="1" gridSize="10" guides="1" tooltips="1" connect="1" arrows="1" fold="1" page="1" pageScale="1" pageWidth="827" pageHeight="1169" math="0" shadow="0">
      <root>
        <mxCell id="0" />
        <mxCell id="1" parent="0" />
        <mxCell id="r8ANfhzWuDnVe35D3QT9-1" value="&lt;font style=&quot;font-size: 20px&quot;&gt;b&lt;sub&gt;0&lt;/sub&gt;&lt;/font&gt;" style="whiteSpace=wrap;html=1;aspect=fixed;strokeWidth=2;" vertex="1" parent="1">
          <mxGeometry x="230" y="240" width="80" height="80" as="geometry" />
        </mxCell>
        <mxCell id="r8ANfhzWuDnVe35D3QT9-2" value="&lt;font style=&quot;font-size: 20px&quot;&gt;b&lt;sub&gt;1&lt;/sub&gt;&lt;/font&gt;" style="whiteSpace=wrap;html=1;aspect=fixed;strokeWidth=2;fillColor=#DAE8FC;" vertex="1" parent="1">
          <mxGeometry x="310" y="240" width="80" height="80" as="geometry" />
        </mxCell>
        <mxCell id="r8ANfhzWuDnVe35D3QT9-3" value="&lt;font style=&quot;font-size: 20px&quot;&gt;b&lt;sub&gt;2&lt;/sub&gt;&lt;/font&gt;" style="whiteSpace=wrap;html=1;aspect=fixed;strokeWidth=2;fillColor=#f8cecc;" vertex="1" parent="1">
          <mxGeometry x="390" y="240" width="80" height="80" as="geometry" />
        </mxCell>
        <mxCell id="r8ANfhzWuDnVe35D3QT9-4" value="&lt;font style=&quot;font-size: 20px&quot;&gt;b&lt;sub&gt;3&lt;/sub&gt;&lt;/font&gt;" style="whiteSpace=wrap;html=1;aspect=fixed;strokeWidth=2;" vertex="1" parent="1">
          <mxGeometry x="470" y="240" width="80" height="80" as="geometry" />
        </mxCell>
        <mxCell id="r8ANfhzWuDnVe35D3QT9-5" value="" style="endArrow=classic;html=1;strokeWidth=2;" edge="1" parent="1">
          <mxGeometry width="50" height="50" relative="1" as="geometry">
            <mxPoint x="340" y="430" as="sourcePoint" />
            <mxPoint x="340" y="320" as="targetPoint" />
          </mxGeometry>
        </mxCell>
        <mxCell id="r8ANfhzWuDnVe35D3QT9-6" value="&lt;font style=&quot;font-size: 20px&quot;&gt;t&lt;sub&gt;1&lt;/sub&gt;&lt;/font&gt;" style="ellipse;whiteSpace=wrap;html=1;strokeWidth=2;fillColor=#dae8fc;" vertex="1" parent="1">
          <mxGeometry x="304" y="430" width="70" height="50" as="geometry" />
        </mxCell>
        <mxCell id="r8ANfhzWuDnVe35D3QT9-7" value="" style="endArrow=classic;html=1;strokeWidth=2;" edge="1" parent="1">
          <mxGeometry width="50" height="50" relative="1" as="geometry">
            <mxPoint x="436" y="430" as="sourcePoint" />
            <mxPoint x="436" y="320" as="targetPoint" />
          </mxGeometry>
        </mxCell>
        <mxCell id="r8ANfhzWuDnVe35D3QT9-8" value="&lt;span style=&quot;font-size: 20px&quot;&gt;t&lt;/span&gt;&lt;span style=&quot;font-size: 16.6667px&quot;&gt;2&lt;/span&gt;" style="ellipse;whiteSpace=wrap;html=1;strokeWidth=2;fillColor=#f8cecc;" vertex="1" parent="1">
          <mxGeometry x="400" y="430" width="70" height="50" as="geometry" />
        </mxCell>
        <mxCell id="r8ANfhzWuDnVe35D3QT9-9" value="" style="endArrow=classic;html=1;strokeWidth=2;entryX=0.5;entryY=1;entryDx=0;entryDy=0;dashed=1;" edge="1" parent="1" target="r8ANfhzWuDnVe35D3QT9-3">
          <mxGeometry width="50" height="50" relative="1" as="geometry">
            <mxPoint x="340" y="430" as="sourcePoint" />
            <mxPoint x="390" y="380" as="targetPoint" />
          </mxGeometry>
        </mxCell>
        <mxCell id="r8ANfhzWuDnVe35D3QT9-10" value="" style="endArrow=classic;html=1;dashed=1;strokeWidth=2;exitX=0.5;exitY=0;exitDx=0;exitDy=0;entryX=0.613;entryY=1.05;entryDx=0;entryDy=0;entryPerimeter=0;" edge="1" parent="1" source="r8ANfhzWuDnVe35D3QT9-8" target="r8ANfhzWuDnVe35D3QT9-2">
          <mxGeometry width="50" height="50" relative="1" as="geometry">
            <mxPoint x="380" y="420" as="sourcePoint" />
            <mxPoint x="340" y="320" as="targetPoint" />
          </mxGeometry>
        </mxCell>
        <mxCell id="r8ANfhzWuDnVe35D3QT9-13" value="" style="endArrow=classic;html=1;strokeWidth=2;" edge="1" parent="1">
          <mxGeometry width="50" height="50" relative="1" as="geometry">
            <mxPoint x="590" y="340" as="sourcePoint" />
            <mxPoint x="660" y="340" as="targetPoint" />
          </mxGeometry>
        </mxCell>
        <mxCell id="r8ANfhzWuDnVe35D3QT9-14" value="&lt;font style=&quot;font-size: 16px&quot;&gt;get_lock&lt;/font&gt;" style="text;html=1;align=center;verticalAlign=middle;resizable=0;points=[];autosize=1;" vertex="1" parent="1">
          <mxGeometry x="670" y="330" width="80" height="20" as="geometry" />
        </mxCell>
        <mxCell id="r8ANfhzWuDnVe35D3QT9-15" value="" style="endArrow=classic;html=1;strokeWidth=2;dashed=1;" edge="1" parent="1">
          <mxGeometry width="50" height="50" relative="1" as="geometry">
            <mxPoint x="590" y="380" as="sourcePoint" />
            <mxPoint x="660" y="380" as="targetPoint" />
          </mxGeometry>
        </mxCell>
        <mxCell id="r8ANfhzWuDnVe35D3QT9-16" value="&lt;font style=&quot;font-size: 16px&quot;&gt;try_get_lock&lt;/font&gt;" style="text;html=1;align=center;verticalAlign=middle;resizable=0;points=[];autosize=1;" vertex="1" parent="1">
          <mxGeometry x="660" y="370" width="100" height="20" as="geometry" />
        </mxCell>
      </root>
    </mxGraphModel>
  </diagram>
</mxfile>
